<svg width="24" height="24" viewBox="0 0 24 24" fill="none" xmlns="http://www.w3.org/2000/svg">
<path d="M16.75 8.5C17.0815 8.5 17.3995 8.3683 17.6339 8.13388C17.8683 7.89946 18 7.58152 18 7.25C18 6.91848 17.8683 6.60054 17.6339 6.36612C17.3995 6.1317 17.0815 6 16.75 6C16.4185 6 16.1005 6.1317 15.8661 6.36612C15.6317 6.60054 15.5 6.91848 15.5 7.25C15.5 7.58152 15.6317 7.89946 15.8661 8.13388C16.1005 8.3683 16.4185 8.5 16.75 8.5Z" fill="currentColor"/>
<path d="M15.75 5.87823e-07C16.9416 0.000923209 18.1189 0.259979 19.2009 0.759345C20.2828 1.25871 21.2437 1.98653 22.0176 2.89274C22.7914 3.79895 23.3597 4.86203 23.6834 6.00885C24.0071 7.15567 24.0785 8.359 23.8928 9.53607C23.707 10.7131 23.2685 11.836 22.6073 12.8274C21.9461 13.8188 21.0781 14.6552 20.0628 15.279C19.0475 15.9029 17.9092 16.2994 16.726 16.4413C15.5428 16.5832 14.343 16.4671 13.209 16.101L11.573 17.737C11.4108 17.8998 11.218 18.0289 11.0057 18.117C10.7934 18.205 10.5658 18.2502 10.336 18.25H9.25C9.1837 18.25 9.12011 18.2763 9.07322 18.3232C9.02634 18.3701 9 18.4337 9 18.5V19.948C9.00004 20.1801 8.90797 20.4027 8.744 20.567L8.53 20.78C8.45865 20.8515 8.3736 20.9078 8.27995 20.9456C8.1863 20.9834 8.08598 21.0019 7.985 21H5.25C5.1837 21 5.12011 21.0263 5.07322 21.0732C5.02634 21.1201 5 21.1837 5 21.25V22.25C5 22.7141 4.81563 23.1592 4.48744 23.4874C4.15925 23.8156 3.71413 24 3.25 24H1.75C1.28587 24 0.840752 23.8156 0.512563 23.4874C0.184374 23.1592 0 22.7141 0 22.25L0 19.414C0 18.95 0.185 18.506 0.513 18.178L7.899 10.79C7.49814 9.55196 7.39588 8.23664 7.60057 6.95151C7.80525 5.66639 8.31108 4.44792 9.07672 3.39566C9.84236 2.34341 10.8461 1.48723 12.0059 0.897064C13.1657 0.306902 14.4487 -0.000490639 15.75 5.87823e-07ZM9 8.25C8.99896 9.09241 9.15601 9.92752 9.463 10.712C9.51623 10.8478 9.52868 10.9962 9.49885 11.139C9.46901 11.2818 9.39816 11.4128 9.295 11.516L1.573 19.237C1.5498 19.2603 1.53141 19.2879 1.51888 19.3182C1.50636 19.3486 1.49994 19.3811 1.5 19.414V22.25C1.5 22.388 1.612 22.5 1.75 22.5H3.25C3.3163 22.5 3.37989 22.4737 3.42678 22.4268C3.47366 22.3799 3.5 22.3163 3.5 22.25V21.25C3.5 20.284 4.284 19.5 5.25 19.5H7.5V18.5C7.5 17.534 8.284 16.75 9.25 16.75H10.336C10.3689 16.7501 10.4014 16.7436 10.4318 16.7311C10.4621 16.7186 10.4897 16.7002 10.513 16.677L12.484 14.705C12.5872 14.6018 12.7182 14.531 12.861 14.5012C13.0038 14.4713 13.1522 14.4838 13.288 14.537C14.6311 15.0631 16.1074 15.1452 17.5005 14.7711C18.8936 14.397 20.1302 13.5865 21.0291 12.4584C21.928 11.3303 22.4418 9.94389 22.4954 8.50244C22.5489 7.06099 22.1392 5.6403 21.3265 4.44864C20.5137 3.25697 19.3406 2.35701 17.979 1.88068C16.6175 1.40434 15.1392 1.37669 13.7608 1.80177C12.3824 2.22686 11.1765 3.08231 10.3197 4.24275C9.46293 5.40318 9.00043 6.80756 9 8.25Z" fill="black"/>
</svg>
